# AST/ASF file generated using VICON BodyLanguage
# -----------------------------------------------
:version 1.10
:name VICON
:units
  mass 1.0
  length 0.45
  angle deg
:documentation
   .ast/.asf automatically generated from VICON data using
   VICON BodyBuilder and BodyLanguage model FoxedUp or BRILLIANT.MOD
:root
   order TX TY TZ RX RY RZ
   axis XYZ
   position 0 0 0  
   orientation 0 0 0 
:bonedata
  begin
     id 1 
     name lhipjoint
     direction 0.662698 -0.695252 0.27831 
     length 2.53073 
     axis 0 0 0  XYZ
  end
  begin
     id 2 
     name lfemur
     direction 0.34202 -0.939693 0  
     length 7.16147  
     axis 0 0 20  XYZ
    dof rx ry rz
    limits (-160.0 20.0)
           (-70.0 70.0)
           (-60.0 70.0)
  end
  begin
     id 3 
     name ltibia
     direction 0.34202 -0.939693 0   
     length 7.63967   
     axis 0 0 20   XYZ
    dof rx
    limits (-10.0 170.0)
  end
  begin
     id 4 
     name lfoot
     direction 0.0938457 -0.257721 0.961651   
     length 1.89793   
     axis -90 7.62852e-016 20   XYZ
    dof rx rz
    limits (-45.0 90.0)
           (-70.0 20.0)
  end
  begin
     id 5 
     name ltoes
     direction -0.00116841 -0.0030592 0.999995   
     length 0.955649   
     axis -90 7.62852e-016 20   XYZ
    dof rx
    limits (-90.0 20.0)
  end
  begin
     id 6 
     name rhipjoint
     direction -0.649445 -0.705948 0.282592   
     length 2.49238  
     axis 0 0 0  XYZ 
  end
  begin
     id 7 
     name rfemur
     direction -0.34202 -0.939693 0   
     length 6.90728   
     axis 0 0 -20   XYZ
    dof rx ry rz
    limits (-160.0 20.0)
           (-70.0 70.0)
           (-70.0 60.0)
  end
  begin
     id 8 
     name rtibia
     direction -0.34202 -0.939693 0   
     length 7.72868   
     axis 0 0 -20   XYZ
    dof rx
    limits (-10.0 170.0)
 end
 begin
     id 9 
     name rfoot
     direction -0.0920068 -0.252865 0.963117   
     length 1.97476  
     axis -90 -7.62852e-016 -20   XYZ
    dof rx rz
    limits (-45.0 90.0)
           (-20.0 70.0)
  end
  begin
     id 10 
     name rtoes
     direction 0.000391322 0.00230649 0.999997   
     length 0.992641   
     axis -90 -7.62852e-016 -20   XYZ
    dof rx
    limits (-90.0 20.0)
  end
  begin
     id 11 
     name lowerback
     direction -0.00875327 0.998321 -0.0572635   
     length 2.20024   
     axis 0 0 0   XYZ
    dof rx ry rz
    limits (-20.0 45.0)
           (-30.0 30.0)
           (-30.0 30.0)
  end
  begin
     id 12 
     name upperback
     direction 0.00753931 0.999972 -0.000360425   
     length 2.20538   
     axis 0 0 0   XYZ
    dof rx ry rz
    limits (-20.0 45.0)
           (-30.0 30.0)
           (-30.0 30.0)
  end
  begin
     id 13 
     name thorax
     direction 0.0117767 0.999601 0.0256663   
     length 2.21508   
     axis 0 0 0   XYZ
    dof rx ry rz
    limits (-20.0 45.0)
           (-30.0 30.0)
           (-30.0 30.0)
  end
  begin
     id 14 
     name lowerneck
     direction 0.060228 0.994909 0.0807986   
     length 1.7607   
     axis 0 0 0   XYZ
    dof rx ry rz
    limits (-20.0 45.0)
           (-30.0 30.0)
           (-30.0 30.0)
  end
  begin
     id 15 
     name upperneck
     direction -0.0563647 0.959594 -0.275685   
     length 1.75612   
     axis 0 0 0   XYZ
    dof rx ry rz
    limits (-20.0 45.0)
           (-30.0 30.0)
           (-30.0 30.0)
  end
  begin
     id 16
     name head
     direction -0.0161544 0.99458 -0.102714  
     length 1.79288  
     axis 0 0 0   XYZ
    dof rx ry rz
    limits (-20.0 45.0)
           (-30.0 30.0)
           (-30.0 30.0)
  end
  begin
     id 17 
     name lclavicle
     direction 0.93913 0.332189 -0.087669  
     length 3.52087  
     axis 0 0 0   XYZ
    dof ry rz
    limits (-20.0 10.0)
           (0.0 20.0)
  end
  begin
     id 18 
     name lhumerus
     direction 1 -4.48974e-011 -2.70836e-027   
     length 5.35289   
     axis -180 -30 -90   XYZ
    dof rx ry rz
    limits (-60.0 90.0)
           (-90.0 90.0)
           (-90.0 90.0)
  end
  begin
     id 19
     name lradius
     direction 1 -4.48961e-011 -9.76021e-027   
     length 3.27727   
     axis -180 -30 -90   XYZ
    dof rx
    limits (-10.0 170.0)
  end
  begin
     id 20
     name lwrist
     direction 1 -4.49103e-011 -2.23668e-026   
     length 1.63864   
     axis 1.44924e-014 90 90   XYZ
    dof ry
    limits (-180.0 0.0)
 end
  begin
     id 21 
     name lhand
     direction 1 3.0697e-005 0.000161777   
     length 0.54443   
     axis 2.85318e-014 90 90   XYZ
    dof rx rz
    limits (-90.0 90.0)
           (-45.0 45.0)
  end
  begin
     id 22 
     name lfingers
     direction 1 -4.49027e-011 -8.9447e-026   
     length 0.438912   
     axis 5.70628e-014 90 90   XYZ
    dof rx
    limits (0.0 90.0)
  end
  begin
     id 23
     name lthumb
     direction 0.707058 2.6516e-005 0.707156   
     length 0.630274   
     axis -90 45 -3.53137e-014   XYZ
    dof rx rz
    limits (-45.0 45.0)
           (-45.0 45.0)
  end
  begin
     id 24 
     name rclavicle
     direction -0.95274 0.284984 -0.105215   
     length 3.43401  
     axis 0 0 0   XYZ 
    dof ry rz
    limits (-10.0 20.0)
           (-20.0 0.0)
  end
  begin
     id 25 
     name rhumerus
     direction -0.999999 -0.000575019 -0.00106829  
     length 5.52077   
     axis -180 30 90   XYZ
    dof rx ry rz
    limits (-90.0 60.0)
           (-90.0 90.0)
           (-90.0 90.0)
  end
  begin
     id 26 
     name rradius
     direction -1 -4.4879e-011 -6.35415e-027   
     length 3.32364   
     axis -180 30 90   XYZ
    dof rx
    limits (-10.0 170.0)
  end
  begin
     id 27 
     name rwrist
     direction -1 -4.49048e-011 -9.98542e-027   
     length 1.66182   
     axis 6.32482e-015 -90 -90   XYZ
    dof ry
    limits (-180.0 0.0)
  end
  begin
     id 28
     name rhand
     direction -1 -4.48978e-011 -1.99771e-026   
     length 0.732235   
     axis 1.27479e-014 -90 -90   XYZ
    dof rx rz
    limits (-90.0 90.0)
           (-45.0 45.0)
  end
  begin
     id 29
     name rfingers
     direction -1 -4.49144e-011 -3.99245e-026   
     length 0.590347   
     axis 2.5496e-014 -90 -90   XYZ
    dof rx
    limits (0.0 90.0)
  end
  begin
     id 30
     name rthumb
     direction -0.707107 -6.35121e-011 0.707107   
     length 0.847624   
     axis -90 -45 -2.82974e-014   XYZ
    dof rx rz
    limits (-45.0 45.0)
           (-45.0 45.0)
  end
:hierarchy
  begin
    root lhipjoint rhipjoint lowerback
    lhipjoint lfemur
    lfemur ltibia
    ltibia lfoot
    lfoot ltoes
    rhipjoint rfemur
    rfemur rtibia
    rtibia rfoot
    rfoot rtoes
    lowerback upperback
    upperback thorax
    thorax lowerneck lclavicle rclavicle
    lowerneck upperneck
    upperneck head
    lclavicle lhumerus
    lhumerus lradius
    lradius lwrist
    lwrist lhand lthumb
    lhand lfingers
    rclavicle rhumerus
    rhumerus rradius
    rradius rwrist
    rwrist rhand rthumb
    rhand rfingers
  end

#!OML:ASF G:\Work\Work\Patient Classification 1\Elijah\terrain1\Elijah.ASF
:FULLY-SPECIFIED
:DEGREES
1476
root 4.1409 22.8075 5.68177 366.751 -5.65867 3.54604
lowerback 6.06842 -0.000431626 -4.88964
upperback 1.69642 -0.319843 -0.999075
thorax -1.63044 -0.151748 1.7376
lowerneck -14.1807 12.0509 11.349
upperneck 32.6533 18.4734 -10.6309
head 16.2199 7.89979 -2.87086
rclavicle 3.40419e-015 2.8128e-014
rhumerus -44.2276 -1.83493 -82.1698
rradius 30.0906
rwrist 3.88467
rhand -10.7757 21.8057
rfingers 7.12502
rthumb 15.2366 -7.61316
lclavicle 3.40419e-015 2.8128e-014
lhumerus -34.2334 -1.47269 79.8199
lradius 78.1467
lwrist 15.7929
lhand -22.2814 28.2209
lfingers 7.12502
lthumb 4.13702 58.1605
rfemur -38.3577 -1.89998 19.1543
rtibia 73.7426
rfoot -8.85113 -3.35938
rtoes -23.8837
lfemur -27.1712 -3.45277 -28.7897
ltibia 42.8252
lfoot -16.394 -7.58656
ltoes -4.35985
1477
root 4.13411 22.8244 5.77975 366.731 -5.53295 3.57023
lowerback 6.05153 -0.0542911 -4.99064
upperback 1.81594 -0.392345 -1.01584
thorax -1.49204 -0.192721 1.78163
lowerneck -14.7134 12.1059 11.0624
upperneck 32.6747 18.4921 -10.3589
head 16.279 7.87825 -2.67556
rclavicle 1.58531e-014 2.85256e-014
rhumerus -44.0814 -1.54355 -82.3764
rradius 30.1071
rwrist 3.36945
rhand -10.9778 21.7586
rfingers 7.12502
rthumb 15.0418 -7.67495
lclavicle 1.58531e-014 2.85256e-014
lhumerus -33.7492 -1.88484 79.7366
lradius 80.251
lwrist 15.9139
lhand -22.3585 27.7788
lfingers 7.12502
lthumb 4.06258 57.7199
rfemur -38.9953 -1.71434 19.2155
rtibia 72.8454
rfoot -8.86459 -4.53946
rtoes -20.7149
lfemur -26.5821 -3.58628 -28.8438
ltibia 42.4779
lfoot -16.486 -7.47937
ltoes -4.14181
1478
root 4.1299 22.8406 5.87861 366.615 -5.40886 3.80208
lowerback 6.0498 -0.132715 -5.28576
upperback 1.84636 -0.513884 -1.07013
thorax -1.44875 -0.25458 1.89922
lowerneck -14.4945 12.1955 11.0687
upperneck 32.5004 18.6364 -10.4097
head 16.171 7.94846 -2.67471
rclavicle -4.39811e-015 -8.84592e-015
rhumerus -44.1593 -1.37841 -82.4269
rradius 30.1933
rwrist 3.05501
rhand -10.6704 21.2115
rfingers 7.12502
rthumb 15.338 -8.19969
lclavicle -4.39811e-015 -8.84592e-015
lhumerus -33.4815 -2.27237 79.6705
lradius 82.2308
lwrist 16.1925
lhand -22.8393 27.1578
lfingers 7.12502
lthumb 3.59833 57.1072
rfemur -39.4854 -1.72161 19.0448
rtibia 71.7901
rfoot -9.47138 -5.42748
rtoes -21.0298
lfemur -25.8303 -3.7535 -29.1574
ltibia 42.0781
lfoot -16.6604 -7.2622
ltoes -4.18188
1479
root 4.12559 22.8537 5.97968 366.486 -5.34319 3.942
lowerback 6.05723 -0.172644 -5.42195
upperback 1.78123 -0.579549 -1.14168
thorax -1.51465 -0.284411 1.90656
lowerneck -13.8606 12.3329 11.4492
upperneck 32.4191 18.8952 -10.7032
head 16.1191 8.09896 -2.83342
rclavicle -3.72721e-016 9.93923e-016
rhumerus -44.3589 -1.62759 -82.2864
rradius 30.1005
rwrist 3.10174
rhand -10.4062 20.9548
rfingers 7.12502
rthumb 15.5925 -8.43667
lclavicle -3.72721e-016 9.93923e-016
lhumerus -33.5984 -2.73706 79.5973
lradius 84.2955
lwrist 16.2478
lhand -22.6447 27.0951
lfingers 7.12502
lthumb 3.78621 57.0412
rfemur -39.8483 -1.63695 18.9479
rtibia 70.5346
rfoot -10.1673 -6.12477
rtoes -21.1078
lfemur -25.0231 -3.837 -29.3756
ltibia 41.6656
lfoot -16.8892 -7.11234
ltoes -4.40491
1480
root 4.11364 22.862 6.07372 366.509 -5.32404 4.03929
lowerback 6.03497 -0.157752 -5.58278
upperback 1.69546 -0.572967 -1.21816
thorax -1.59034 -0.277498 1.91729
lowerneck -13.4218 12.4819 11.7839
upperneck 32.4275 19.1476 -10.8922
head 16.1366 8.24194 -2.9322
rclavicle -1.84373e-014 -4.37326e-015
rhumerus -44.4792 -1.92036 -82.2156
rradius 30.0075
rwrist 3.15122
rhand -10.5713 21.1705
rfingers 7.12502
rthumb 15.4334 -8.23331
lclavicle -1.84373e-014 -4.37326e-015
lhumerus -33.6261 -3.29054 79.4971
lradius 86.2546
lwrist 16.1482
lhand -21.9678 27.4034
lfingers 7.12502
lthumb 4.43991 57.3369
rfemur -40.3177 -1.34395 18.8973
rtibia 69.143
rfoot -10.751 -6.77001
rtoes -19.7984
lfemur -24.4852 -3.82422 -29.4915
ltibia 41.2582
lfoot -16.9915 -7.13515
ltoes -3.94583
1481
root 4.09684 22.8734 6.16893 366.521 -5.37579 4.04745
lowerback 6.03325 -0.146219 -5.86427
upperback 1.6383 -0.575907 -1.16399
thorax -1.64437 -0.276033 2.131
lowerneck -12.8637 12.6406 11.8871
upperneck 32.1959 19.4388 -11.0579
head 15.9795 8.39158 -2.98065
rclavicle -2.9122e-014 -2.52457e-014
rhumerus -44.696 -1.76584 -82.2312
rradius 30.313
rwrist 3.00803
rhand -10.7077 21.234
rfingers 7.12502
rthumb 15.3021 -8.17992
lclavicle -2.9122e-014 -2.52457e-014
lhumerus -33.5849 -3.70514 79.4497
lradius 88.0617
lwrist 16.2412
lhand -22.0398 26.8379
lfingers 7.12502
lthumb 4.37031 56.7728
rfemur -40.7124 -0.926308 18.9486
rtibia 67.5678
rfoot -11.2522 -7.36637
rtoes -19.4723
lfemur -23.9582 -3.712 -29.503
ltibia 40.8428
lfoot -17.0738 -7.15289
ltoes -3.19668
